<?xml version="1.0" encoding="UTF-8" standalone="no"?>
<!DOCTYPE svg PUBLIC "-//W3C//DTD SVG 1.1//EN" "http://www.w3.org/Graphics/SVG/1.1/DTD/svg11.dtd">
<svg width="100%" height="100%" viewBox="0 0 356 277" version="1.1" xmlns="http://www.w3.org/2000/svg" xmlns:xlink="http://www.w3.org/1999/xlink" xml:space="preserve" xmlns:serif="http://www.serif.com/" style="fill-rule:evenodd;clip-rule:evenodd;stroke-linejoin:round;stroke-miterlimit:2;">
    <g transform="matrix(1,0,0,1,-1893.9,-752.5)">
        <g>
            <g>
                <path d="M2249,890.8C2249,960.8 2196.9,1018.6 2129.4,1027.6C2123.3,1028.4 2117.1,1028.8 2110.8,1028.8C2104.5,1028.8 2096.9,1028.3 2090.3,1027.3C2087.9,1027 2085.5,1026.5 2083.1,1026C2082.7,1026 2082.3,1025.9 2081.9,1025.8C2080.8,1025.5 2079.7,1025.3 2078.6,1025C2078.2,1024.9 2077.8,1024.8 2077.4,1024.7C2038.7,1014.8 2004.3,988.5 1986.3,949.2L1958.3,949.2C1950,949.2 1943.2,942.4 1943.2,934.1C1943.2,925.8 1944.9,926.1 1947.6,923.4C1950.3,920.7 1954.1,919 1958.3,919L1975.8,919C1974.8,914.2 1974,909.3 1973.6,904.3L1918.5,904.3C1910.2,904.3 1903.4,897.5 1903.4,889.2C1903.4,880.9 1905.1,881.2 1907.8,878.5C1910.5,875.8 1914.3,874.1 1918.5,874.1L1973.8,874.1C1974.5,868.1 1975.6,862.2 1977.1,856.5L1938.6,856.5C1930.3,856.5 1923.5,849.7 1923.5,841.4C1923.5,833.1 1925.2,833.4 1927.9,830.7C1930.6,828 1934.4,826.3 1938.6,826.3L1989.2,826.3C2010.8,785.1 2054,756.3 2100.8,753.4L2100.8,752.9C2104.2,752.7 2107.5,752.5 2110.9,752.5C2114.3,752.5 2118.6,752.7 2122.3,753L2122.3,753.1C2144,754.9 2164.6,761.8 2182.5,772.6C2183.7,773.3 2184.9,774.1 2186.1,774.8C2187.3,775.6 2188.6,776.4 2189.8,777.3C2191.1,778.2 2192.3,779.1 2193.5,779.9C2193.6,780 2193.8,780.1 2194,780.2C2195.1,781 2196.2,781.9 2197.2,782.7C2197.7,783.1 2198.2,783.5 2198.7,783.9C2199.6,784.6 2200.4,785.3 2201.3,786.1C2202.1,786.8 2203,787.6 2203.8,788.3C2204.7,789.1 2205.5,789.9 2206.4,790.7C2232.7,815.8 2249.1,851.3 2249.1,890.5L2249,890.8Z" style="fill-rule:nonzero;"/>
                <path d="M1937.2,928.2C1937.2,936.534 1930.434,943.3 1922.1,943.3L1909,943.3C1900.666,943.3 1893.9,936.534 1893.9,928.2C1893.9,919.866 1900.666,913.1 1909,913.1L1922.1,913.1C1930.434,913.1 1937.2,919.866 1937.2,928.2Z"/>
            </g>
            <g>
                <path d="M2185.1,945.2L2156.7,945.2L2156.7,894.6C2156.7,889.4 2152.7,882.6 2147.7,880.7C2136.9,876.8 2126.5,885.4 2126.5,896.4L2126.5,945.2L2098.1,945.2L2098.1,859.1L2126.5,859.1L2126.5,871C2131,865.6 2135.1,861.1 2142.1,858.9C2157.9,853.8 2175.4,860.3 2181.9,876C2188.4,891.7 2185.2,886 2185.2,888.7L2185.2,945.3L2185.1,945.2Z" style="fill:rgb(255,225,77);fill-rule:nonzero;"/>
                <path d="M2082.5,945.2L2053.6,945.2L2053.6,859.7L2054.3,859.1L2081.8,859.1L2082.5,859.7L2082.5,945.2Z" style="fill:rgb(255,225,77);fill-rule:nonzero;"/>
                <path d="M2065.4,818C2089.8,815.1 2090.4,849.1 2066.7,847.6C2047.7,846.4 2047.3,820.1 2065.4,818Z" style="fill:rgb(255,225,77);fill-rule:nonzero;"/>
            </g>
        </g>
    </g>
</svg>
